%TF.GenerationSoftware,KiCad,Pcbnew,9.0.6*%
%TF.CreationDate,2026-02-06T17:08:00+05:30*%
%TF.ProjectId,ESP32-S3,45535033-322d-4533-932e-6b696361645f,rev?*%
%TF.SameCoordinates,Original*%
%TF.FileFunction,Plated,1,4,PTH,Mixed*%
%TF.FilePolarity,Positive*%
%FSLAX46Y46*%
G04 Gerber Fmt 4.6, Leading zero omitted, Abs format (unit mm)*
G04 Created by KiCad (PCBNEW 9.0.6) date 2026-02-06 17:08:00*
%MOMM*%
%LPD*%
G01*
G04 APERTURE LIST*
%TA.AperFunction,ViaDrill*%
%ADD10C,0.300000*%
%TD*%
%TA.AperFunction,ComponentDrill*%
%ADD11C,0.300000*%
%TD*%
%TA.AperFunction,ViaDrill*%
%ADD12C,0.500000*%
%TD*%
G04 aperture for slot hole*
%TA.AperFunction,ComponentDrill*%
%ADD13C,0.600000*%
%TD*%
%TA.AperFunction,ComponentDrill*%
%ADD14C,0.990000*%
%TD*%
%TA.AperFunction,ComponentDrill*%
%ADD15C,1.000000*%
%TD*%
%TA.AperFunction,ComponentDrill*%
%ADD16C,1.100000*%
%TD*%
%TA.AperFunction,ComponentDrill*%
%ADD17C,1.300000*%
%TD*%
%TA.AperFunction,ComponentDrill*%
%ADD18C,2.100000*%
%TD*%
G04 APERTURE END LIST*
D10*
X137125000Y-93812500D03*
X137325000Y-90512500D03*
X139425000Y-92212500D03*
X139425000Y-93512500D03*
X140825000Y-94712500D03*
X144025000Y-100092500D03*
X146425000Y-83412500D03*
X148025000Y-104712500D03*
X148525000Y-93912500D03*
X149825000Y-121012500D03*
X150450000Y-97137500D03*
X151725000Y-97212500D03*
X152025000Y-120112500D03*
X152990000Y-97277500D03*
X154125000Y-120612500D03*
X154260000Y-97247500D03*
X155525000Y-97212500D03*
X156525000Y-103812500D03*
X157125000Y-121112500D03*
X157600000Y-101612500D03*
X158325000Y-97112500D03*
X159325000Y-100112500D03*
X160500000Y-99912500D03*
X160625000Y-89012500D03*
X161225000Y-112512500D03*
X161825000Y-101812500D03*
X163825000Y-84812500D03*
X164025000Y-86212500D03*
X164025000Y-90412500D03*
X164075000Y-102662500D03*
X164125000Y-97412500D03*
X164725000Y-95032778D03*
X166000000Y-105137500D03*
X166125000Y-103612500D03*
X166425000Y-101412500D03*
X167325000Y-100812500D03*
X169925000Y-108112500D03*
X172345000Y-108032500D03*
X173025000Y-89612500D03*
X173025000Y-114012500D03*
X175045000Y-108032500D03*
X175725000Y-113912500D03*
X176950000Y-91837500D03*
D11*
%TO.C,U2*%
X150725000Y-87812500D03*
X150725000Y-89212500D03*
X151425000Y-87112500D03*
X151425000Y-88512500D03*
X151425000Y-89912500D03*
X152125000Y-87812500D03*
X152125000Y-89212500D03*
X152825000Y-87112500D03*
X152825000Y-88512500D03*
X152825000Y-89912500D03*
X153525000Y-87812500D03*
X153525000Y-89212500D03*
%TD*%
D12*
X140492500Y-83845000D03*
X142875000Y-111862500D03*
X151226336Y-121512500D03*
X154125000Y-115560024D03*
X156025000Y-121012500D03*
X161827500Y-107312500D03*
X162825000Y-112812500D03*
X169485000Y-84152500D03*
X171363750Y-107012500D03*
D13*
%TO.C,J1*%
X149306336Y-123747500D02*
X149306336Y-122647500D01*
X149306336Y-127777500D02*
X149306336Y-126977500D01*
X157946336Y-123747500D02*
X157946336Y-122647500D01*
X157946336Y-127777500D02*
X157946336Y-126977500D01*
D14*
%TO.C,SW3*%
X175562500Y-99437500D03*
X175562500Y-103937500D03*
D15*
%TO.C,J3*%
X133925000Y-101732500D03*
X133925000Y-104272500D03*
X133925000Y-106812500D03*
X133925000Y-109352500D03*
X133925000Y-111892500D03*
X136465000Y-101732500D03*
X136465000Y-104272500D03*
X136465000Y-106812500D03*
X136465000Y-109352500D03*
X136465000Y-111892500D03*
D16*
%TO.C,D1*%
X148915000Y-112612500D03*
X156535000Y-112612500D03*
D17*
%TO.C,SW3*%
X173072500Y-98187500D03*
X173072500Y-105197500D03*
D18*
%TO.C,H2*%
X132525000Y-81812500D03*
%TO.C,H4*%
X132525000Y-125212500D03*
%TO.C,H3*%
X174525000Y-125212500D03*
%TO.C,H1*%
X174925000Y-81812500D03*
M02*
